<?xml version="1.0" standalone="no"?>
<!DOCTYPE svg PUBLIC "-//W3C//DTD SVG 20010904//EN"
 "http://www.w3.org/TR/2001/REC-SVG-20010904/DTD/svg10.dtd">
<svg version="1.0" xmlns="http://www.w3.org/2000/svg"
 width="780.000000pt" height="780.000000pt" viewBox="0 0 780.000000 780.000000"
 preserveAspectRatio="xMidYMid meet">
<metadata>
Created by potrace 1.11, written by Peter Selinger 2001-2013
</metadata>
<g transform="translate(0.000000,780.000000) scale(0.100000,-0.100000)"
fill="#000000" stroke="none">
<path d="M2478 7154 c-147 -24 -186 -35 -294 -84 -55 -25 -152 -82 -191 -113
-37 -29 -153 -146 -185 -187 -60 -76 -144 -239 -163 -315 -1 -5 -5 -17 -8 -25
-3 -8 -9 -31 -12 -50 -3 -19 -8 -53 -12 -75 -9 -50 -9 -249 0 -295 4 -19 9
-48 12 -65 12 -65 85 -256 105 -275 7 -7 44 -80 47 -93 1 -7 9 -36 17 -66 20
-74 14 -189 -14 -273 -13 -38 -27 -68 -31 -68 -5 0 -9 -5 -9 -11 0 -13 -63
-94 -95 -122 -28 -25 -98 -74 -110 -77 -5 -2 -24 -9 -40 -16 -45 -18 -123 -31
-211 -33 -398 -11 -769 -276 -904 -645 -47 -128 -64 -224 -64 -356 1 -388 216
-735 559 -901 227 -109 468 -132 710 -66 44 12 83 20 88 19 4 -1 7 3 7 8 0 6
5 10 11 10 17 0 103 42 111 54 4 6 8 7 8 3 0 -7 42 21 144 93 77 55 267 295
249 314 -4 3 -2 6 4 6 6 0 14 10 18 23 4 12 8 24 10 27 52 118 84 256 86 370
2 179 -40 366 -113 505 -69 129 -88 187 -92 280 -5 113 56 261 145 353 96 99
207 145 349 144 212 -2 378 -122 457 -331 33 -87 35 -208 5 -296 -18 -53 -69
-160 -91 -190 -4 -5 -19 -46 -34 -90 -105 -310 -63 -631 117 -900 37 -55 155
-181 218 -232 97 -78 264 -153 413 -184 86 -18 267 -26 325 -14 14 3 50 9 80
15 30 6 116 33 190 61 148 56 172 61 275 61 108 0 179 -40 232 -129 77 -133 4
-303 -190 -444 -133 -97 -254 -235 -321 -368 -22 -42 -89 -223 -86 -229 2 -2
-7 -59 -16 -107 -11 -57 -4 -244 11 -314 30 -134 79 -254 147 -356 90 -137
234 -267 373 -338 49 -25 110 -51 110 -46 0 1 11 -4 25 -11 14 -8 30 -15 35
-16 6 -1 46 -10 90 -20 107 -25 321 -25 418 0 37 10 73 19 80 20 7 2 20 6 29
10 9 4 22 9 30 10 37 7 205 99 257 141 93 75 231 227 231 254 0 6 4 11 8 11
14 0 99 189 122 270 46 165 46 363 0 530 -22 77 -79 212 -92 218 -5 2 -8 12
-8 22 0 10 -3 20 -7 22 -5 2 -24 26 -43 53 -47 69 -122 147 -200 208 -36 29
-66 55 -68 59 -2 5 -8 8 -13 8 -5 0 -34 26 -64 57 -120 126 -151 250 -90 362
33 61 88 105 149 122 55 16 159 13 226 -6 30 -9 60 -17 65 -18 6 -2 26 -11 45
-21 19 -10 42 -19 50 -22 8 -2 41 -13 73 -24 192 -68 425 -67 637 2 36 11 70
25 76 29 6 5 14 6 17 2 4 -3 7 -1 7 6 0 7 5 9 10 6 6 -3 10 -1 10 4 0 6 6 11
13 11 21 0 157 94 224 154 115 105 252 321 277 436 3 14 10 43 16 65 19 68 25
126 25 240 0 117 -6 167 -31 255 -8 30 -16 62 -18 70 -2 8 -18 46 -36 84 -118
258 -337 454 -603 541 -230 75 -491 64 -707 -31 -3 -1 -15 -5 -27 -9 -13 -4
-23 -11 -23 -16 0 -5 -4 -8 -8 -6 -5 1 -44 -20 -88 -48 -94 -59 -235 -197
-289 -283 -99 -157 -176 -229 -293 -274 -130 -51 -264 -45 -389 17 -89 44
-145 100 -231 230 -72 111 -185 229 -277 291 -69 48 -127 79 -137 76 -5 -1 -8
3 -8 10 0 6 -3 9 -6 5 -4 -3 -19 0 -33 8 -82 42 -219 71 -379 80 -172 10 -273
54 -372 162 -85 93 -130 214 -125 338 4 91 24 156 78 258 48 89 100 232 113
312 9 61 10 298 0 340 -4 17 -9 40 -11 53 -14 80 -81 250 -112 284 -9 10 -13
18 -9 18 4 0 1 7 -6 15 -30 33 -38 45 -38 54 0 32 -280 281 -316 281 -4 0 -15
6 -23 13 -23 20 -138 67 -145 60 -3 -4 -6 -2 -6 4 0 5 -6 10 -12 11 -7 0 -42
8 -78 17 -121 30 -249 37 -362 19z"/>
</g>
</svg>
